# xmcd
#
# Track frame offsets:
#	150
#	14200
#	30369
#	41350
#	59275
#	77337
#	90087
#	106377
#	121202
#	139825
#	157105
#	174910
#	195520
#	210484
#	226459
#
# Disc length: 3187 seconds
#
# Revision: 1
# Processed by: cddbd v1.5.2PL0 Copyright (c) Steve Scherf et al.
# Submitted via: audiograbber 1.83.01
#
DISCID=b30c710f
DTITLE=Maureen Woods - Let me live with love
DYEAR=1900
DGENRE=Country
TTITLE0=Let me live with love
TTITLE1=The holy tree
TTITLE2=Dear god
TTITLE3=Silver and gold
TTITLE4=Family bible
TTITLE5=Why me lord
TTITLE6=Thank you God for everything
TTITLE7=God must be a cowboy
TTITLE8=Angel on loan
TTITLE9=Amazing Grace
TTITLE10=A closer walk with thee
TTITLE11=The Gift
TTITLE12=Life railroad to heaven
TTITLE13=Walk on clouds
TTITLE14=Royal telephone
EXTD=
EXTT0=
EXTT1=
EXTT2=
EXTT3=
EXTT4=
EXTT5=
EXTT6=
EXTT7=
EXTT8=
EXTT9=
EXTT10=
EXTT11=
EXTT12=
EXTT13=
EXTT14=
PLAYORDER=
